<svg xmlns="http://www.w3.org/2000/svg" xmlns:xlink="http://www.w3.org/1999/xlink" width="200" height="55" viewBox="0 0 200 55"><defs><path id="a" d="M314.53 84.58h-9.33v-1.36a12.62 12.62 0 0 1 1.94-.84v-8.22c0-1.46-.21-2.61-.63-3.44-.43-.83-1.18-1.24-2.26-1.24-.89 0-1.66.29-2.3.86a5.26 5.26 0 0 0-1.46 2.32v9.72a6.3 6.3 0 0 1 1.93.84v1.36h-9.32v-1.36c.59-.3 1.36-.59 2.32-.84v-12.8l-2.32-.27v-1.37c.3-.14.7-.27 1.2-.4a30.25 30.25 0 0 1 5-.86h1.19v3.6h.03a7 7 0 0 1 2.22-2.53 5.97 5.97 0 0 1 3.59-1.07c.91 0 1.74.12 2.46.34.73.22 1.35.6 1.85 1.17.5.56.9 1.3 1.16 2.25.27.95.4 2.14.4 3.58v8.36c.94.16 1.72.44 2.33.84zm-36.6-8.74c0 1.05.07 2.01.2 2.89.13.87.35 1.61.68 2.22.33.6.78 1.07 1.34 1.41.56.34 1.29.5 2.18.5.52 0 .99-.11 1.4-.36.43-.24.8-.64 1.1-1.19.3-.55.53-1.27.69-2.16.15-.9.23-2 .23-3.3 0-1.08-.07-2.05-.2-2.9a6.97 6.97 0 0 0-.67-2.21 3.6 3.6 0 0 0-1.28-1.42 3.78 3.78 0 0 0-2.04-.5c-.61 0-1.14.12-1.59.36-.44.25-.82.64-1.12 1.2-.3.54-.54 1.26-.69 2.16-.15.9-.23 2-.23 3.3zm-5.45 0c0-1.42.22-2.7.65-3.83a7.97 7.97 0 0 1 4.8-4.7c1.15-.42 2.45-.63 3.9-.63 1.65 0 3.06.23 4.25.69a7.3 7.3 0 0 1 4.6 4.79c.34 1.12.52 2.35.52 3.68 0 1.42-.21 2.7-.63 3.83a7.79 7.79 0 0 1-4.8 4.7 11.5 11.5 0 0 1-3.93.63c-1.6 0-2.98-.23-4.15-.68a7.54 7.54 0 0 1-4.64-4.79 11.64 11.64 0 0 1-.57-3.69zm-9.96-14.47c0-.81.28-1.45.85-1.92a3.3 3.3 0 0 1 2.18-.7c.89 0 1.62.23 2.18.7s.84 1.1.84 1.92c0 .8-.28 1.42-.84 1.89a3.3 3.3 0 0 1-2.18.7 3.3 3.3 0 0 1-2.18-.7 2.32 2.32 0 0 1-.85-1.89zm7.99 23.21h-9.71v-1.36c.35-.19.71-.35 1.09-.47.37-.13.78-.25 1.23-.37v-12.8l-2.32-.27v-1.37a20.9 20.9 0 0 1 3-.79 52.84 52.84 0 0 1 3.19-.47h1.2v15.7c.47.12.89.24 1.26.37.38.12.73.28 1.06.47zm-24.56-16.64a9.3 9.3 0 0 1 2.81-1.19v-2.83a6.8 6.8 0 0 1 1.4-.6c.73-.28 1.56-.5 2.47-.66h1.2v4.44h4.65v2.2h-4.65v9.06c0 1.44.18 2.45.55 3 .36.56.96.84 1.8.84.43 0 .9-.03 1.43-.08a6.22 6.22 0 0 0 1.46-.34l.25 1.16c-.21.2-.52.43-.93.66a11.34 11.34 0 0 1-3.13 1.19c-.63.14-1.28.21-1.96.21-1.52 0-2.66-.4-3.41-1.19-.75-.8-1.13-2.07-1.13-3.84V69.3h-2.81zm-1.27 13.8c-.16.48-.43.9-.8 1.29a6.84 6.84 0 0 1-3.15 1.73 11.07 11.07 0 0 1-6.09-.4 7.11 7.11 0 0 1-4.39-4.76 12.6 12.6 0 0 1-.52-3.76c0-2.96.81-5.22 2.44-6.8 1.63-1.57 3.95-2.36 6.95-2.36a12.83 12.83 0 0 1 5.56 1.23 25.49 25.49 0 0 1-.84 4.14c-.14.45-.28.83-.43 1.14h-1.72l-1.48-4.16c-.16-.12-.34-.2-.52-.27a3.05 3.05 0 0 0-.85-.08c-.6 0-1.14.1-1.58.33-.45.22-.83.6-1.15 1.13a6.32 6.32 0 0 0-.7 2.14c-.15.88-.23 1.98-.23 3.28 0 .96.1 1.84.32 2.64.2.8.53 1.5.97 2.1a4.61 4.61 0 0 0 3.95 1.9 6 6 0 0 0 3.7-1.18zm-16.47 2.84h-9.32v-1.36a12.63 12.63 0 0 1 1.93-.84v-8.22c0-1.46-.2-2.61-.63-3.44-.42-.83-1.17-1.24-2.25-1.24-.9 0-1.66.29-2.3.86a5.26 5.26 0 0 0-1.47 2.32v9.72a6.3 6.3 0 0 1 1.94.84v1.36h-9.32v-1.36c.58-.3 1.36-.59 2.32-.84v-12.8l-2.32-.27v-1.37c.3-.14.7-.27 1.2-.4a30.25 30.25 0 0 1 4.99-.86h1.2v3.6h.03a7 7 0 0 1 2.22-2.53 5.97 5.97 0 0 1 3.59-1.07c.91 0 1.73.12 2.46.34.73.22 1.34.6 1.85 1.17.5.56.89 1.3 1.16 2.25.27.95.4 2.14.4 3.58v8.36c.94.16 1.71.44 2.32.84zm-31.1-23.2c0-.82.28-1.46.84-1.93a3.3 3.3 0 0 1 2.18-.7c.9 0 1.62.23 2.19.7.56.47.84 1.1.84 1.92 0 .8-.28 1.42-.84 1.89a3.3 3.3 0 0 1-2.19.7 3.3 3.3 0 0 1-2.18-.7 2.32 2.32 0 0 1-.84-1.89zm7.99 23.2h-9.72v-1.36c.36-.19.72-.35 1.1-.47.37-.13.78-.25 1.23-.37v-12.8l-2.33-.27v-1.37a20.9 20.9 0 0 1 3-.79 52.84 52.84 0 0 1 3.2-.47h1.2v15.7c.46.12.89.24 1.26.37.38.12.73.28 1.06.47zm-24.56-16.64a9.3 9.3 0 0 1 2.81-1.19v-2.83a6.8 6.8 0 0 1 1.39-.6c.74-.28 1.57-.5 2.48-.66h1.2v4.44h4.64v2.2h-4.64v9.06c0 1.44.18 2.45.54 3 .37.56.97.84 1.82.84.42 0 .9-.03 1.42-.08a6.22 6.22 0 0 0 1.46-.34l.25 1.16c-.21.2-.53.43-.94.66a11.34 11.34 0 0 1-3.13 1.19c-.62.14-1.27.21-1.95.21-1.53 0-2.66-.4-3.41-1.19-.75-.8-1.13-2.07-1.13-3.84V69.3h-2.81zm-7.92 7.27l5.56 7.17c.6.18 1.18.46 1.72.84v1.36h-8.97v-1.33c.26-.18.52-.35.8-.5.26-.16.54-.28.82-.37l-3.34-4.76-3.24 4.76a5.42 5.42 0 0 1 1.58.84v1.36h-6.65v-1.36l.9-.5c.27-.13.58-.25.93-.34l5.2-6.43-5.23-6.64a8 8 0 0 1-.88-.37c-.26-.13-.5-.29-.7-.47V67.1h8.82v1.33l-.75.5c-.23.16-.5.28-.83.38l3.06 4.33 2.92-4.33a4.18 4.18 0 0 1-1.58-.84V67.1h6.5v1.37a6.13 6.13 0 0 1-1.82.84zm-14.11-15.1a54.6 54.6 0 0 1-.25 3.25 37.51 37.51 0 0 1-.46 3.15h-1.44l-1.62-4.12h-6.58v8.56h4.3l1.54-2.7h1.13a40.75 40.75 0 0 1 0 7.72H154l-1.54-2.75h-4.3v9.09h6.86l1.87-4.44h1.44a36.24 36.24 0 0 1 .51 3.23 44.73 44.73 0 0 1 .2 3.48H140v-1.33a12 12 0 0 1 1.34-.6c.49-.18 1-.32 1.55-.41V62.46c-.47-.1-.97-.23-1.5-.4a7.3 7.3 0 0 1-1.39-.62v-1.33zm173.75-19.73c-.47 0-.88.08-1.25.25-.36.16-.68.46-.95.89a5.65 5.65 0 0 0-.65 1.74c-.16.74-.28 1.67-.35 2.78h5.67c.16-1.81.05-3.21-.32-4.2a2.11 2.11 0 0 0-2.15-1.46zm7.25 12.97c-.19.4-.49.8-.9 1.2-.4.41-.91.77-1.5 1.09a10.42 10.42 0 0 1-4.63 1.07c-1.46 0-2.75-.22-3.88-.65a7.4 7.4 0 0 1-4.52-4.74 11.5 11.5 0 0 1-.58-3.77c0-2.99.79-5.26 2.36-6.82 1.57-1.56 3.75-2.34 6.54-2.34 1.2 0 2.32.16 3.36.49 1.05.32 1.92.86 2.6 1.6a6.2 6.2 0 0 1 1.45 2.94c.27 1.21.25 2.7-.05 4.44h-10.8c.02 1.84.5 3.31 1.42 4.4.93 1.1 2.3 1.65 4.1 1.65.77 0 1.58-.12 2.41-.35a5.52 5.52 0 0 0 1.95-.91zm-17.98 2.93h-9.71v-1.36c.77-.37 1.55-.65 2.32-.84V32.9l-2.67-.28v-1.36c.3-.14.72-.28 1.26-.42.54-.14 1.12-.26 1.75-.37A51.45 51.45 0 0 1 318 30h1.2v24.08c.77.19 1.55.47 2.32.84zm-20.72-15.1c-.9 0-1.61.33-2.15.97a6.14 6.14 0 0 0-1.2 2.43v9.26c.33.23.74.42 1.22.56.48.14 1.02.2 1.63.2a3.1 3.1 0 0 0 2.94-1.78c.62-1.18.93-3.05.93-5.59 0-1.84-.25-3.3-.75-4.4a2.66 2.66 0 0 0-2.62-1.64zm-8.41-8.28l-2.68-.28v-1.36c.35-.14.82-.28 1.4-.42.57-.14 1.16-.26 1.79-.37a58.6 58.6 0 0 1 3.36-.47h1.2v12.1h.06a5.83 5.83 0 0 1 2.15-2.73c.96-.65 2.1-.98 3.41-.98 2.07 0 3.67.71 4.82 2.13 1.15 1.42 1.73 3.58 1.73 6.47 0 3.19-.85 5.59-2.55 7.2-1.7 1.6-4.2 2.41-7.48 2.41-.59 0-1.24-.04-1.97-.12-.73-.08-1.43-.18-2.11-.3a18.1 18.1 0 0 1-1.89-.42c-.57-.16-.99-.33-1.24-.49zm-13.34 21c.5 0 .91-.09 1.27-.27.35-.19.65-.4.9-.67.24-.25.43-.53.56-.83.13-.3.23-.58.3-.8v-3.5c-1.1.02-2.01.09-2.71.2-.7.12-1.26.31-1.66.58-.4.27-.67.6-.82 1.02-.16.4-.23.9-.23 1.48 0 .89.2 1.57.63 2.06.42.5 1 .74 1.76.74zm7.92-2.68l.01 1.32c.02.38.05.77.1 1.2l2.42.34v1.23c-.28.14-.66.28-1.14.42-.48.14-.99.27-1.52.4a19.6 19.6 0 0 1-2.93.5h-1.2a5.1 5.1 0 0 1-.42-1.6c-.05-.54-.09-1.2-.1-1.96h-.18a4.76 4.76 0 0 1-1.67 2.5 5.47 5.47 0 0 1-3.5 1.13c-.78 0-1.5-.11-2.15-.35a5.43 5.43 0 0 1-1.73-.97 4.5 4.5 0 0 1-1.58-3.53c0-1.05.2-1.91.6-2.6a4.4 4.4 0 0 1 1.88-1.65c.86-.43 1.96-.75 3.3-.96 1.36-.21 3-.36 4.92-.46.18-2 .1-3.47-.25-4.4-.35-.93-1.11-1.4-2.29-1.4-.73 0-1.4.12-2 .35l-1.66 4.2h-1.55a13.16 13.16 0 0 1-1.43-3.36c-.1-.42-.17-.83-.22-1.22.9-.61 2.04-1.09 3.45-1.44 1.4-.35 2.9-.52 4.47-.52 1.33 0 2.43.14 3.27.44.84.29 1.5.68 1.99 1.18.48.5.81 1.1 1 1.77.19.68.28 1.4.28 2.17 0 1.4-.03 2.66-.09 3.79a67.12 67.12 0 0 0-.08 3.48zm-30.3-11.57a9.3 9.3 0 0 1 2.82-1.2v-2.82a6.8 6.8 0 0 1 1.39-.61c.73-.27 1.56-.49 2.48-.65h1.2v4.44h4.64V41h-4.65v9.05c0 1.45.18 2.45.55 3 .36.57.97.85 1.81.85.42 0 .9-.03 1.43-.09a6.22 6.22 0 0 0 1.46-.33l.24 1.15c-.21.21-.52.43-.93.67a11.34 11.34 0 0 1-3.13 1.18c-.62.14-1.28.21-1.96.21-1.52 0-2.66-.4-3.4-1.18-.76-.8-1.13-2.08-1.13-3.85V41.01h-2.82zm-.7 16.63h-9.33v-1.36a12.63 12.63 0 0 1 1.94-.84v-8.21c0-1.47-.21-2.62-.64-3.44-.42-.83-1.17-1.24-2.25-1.24-.89 0-1.66.28-2.3.85a5.26 5.26 0 0 0-1.46 2.33v9.71a6.3 6.3 0 0 1 1.93.84v1.36h-9.32v-1.36c.58-.3 1.36-.58 2.32-.84V41.3l-2.32-.28v-1.36c.3-.14.7-.28 1.2-.4a30.25 30.25 0 0 1 5-.86h1.19V42h.03a7 7 0 0 1 2.22-2.54 5.97 5.97 0 0 1 3.59-1.06c.91 0 1.73.1 2.46.33.73.22 1.34.61 1.85 1.17.5.56.89 1.31 1.16 2.26.27.94.4 2.13.4 3.58v8.35c.94.17 1.72.45 2.33.84zm-31.28-15.9c-.47 0-.89.08-1.25.25-.37.16-.68.46-.95.89a5.65 5.65 0 0 0-.65 1.74c-.17.74-.29 1.67-.36 2.78h5.67c.16-1.81.06-3.21-.32-4.2a2.11 2.11 0 0 0-2.14-1.46zm7.24 12.97c-.18.4-.48.8-.9 1.2-.4.41-.9.77-1.5 1.09a10.42 10.42 0 0 1-4.63 1.07c-1.46 0-2.75-.22-3.87-.65a7.4 7.4 0 0 1-4.53-4.74 11.5 11.5 0 0 1-.58-3.77c0-2.99.79-5.26 2.36-6.82 1.57-1.56 3.75-2.34 6.55-2.34 1.2 0 2.31.16 3.36.49 1.04.32 1.9.86 2.6 1.6a6.2 6.2 0 0 1 1.44 2.94c.27 1.21.26 2.7-.05 4.44h-10.8c.02 1.84.5 3.31 1.42 4.4.93 1.1 2.3 1.65 4.1 1.65.78 0 1.58-.12 2.41-.35a5.52 5.52 0 0 0 1.96-.91zm-27.51 3.35l-7.04-15.69c-.68-.23-1.3-.51-1.86-.84v-1.36h9.25v1.33l-.93.47c-.32.15-.68.28-1.08.4l3.28 8.95.66 2.34h.08l.56-2.38 2.99-8.91a6.37 6.37 0 0 1-1.94-.84v-1.36h6.8v1.36c-.24.16-.53.32-.87.46-.34.14-.72.26-1.14.38l-6.16 15.27zm-17.6-16.32c-.47 0-.88.08-1.25.25-.36.16-.68.46-.95.89a5.65 5.65 0 0 0-.65 1.74c-.16.74-.28 1.67-.35 2.78h5.67c.16-1.81.06-3.21-.32-4.2a2.11 2.11 0 0 0-2.15-1.46zm7.25 12.97c-.19.4-.48.8-.9 1.2-.4.41-.91.77-1.5 1.09a10.42 10.42 0 0 1-4.63 1.07c-1.46 0-2.75-.22-3.88-.65a7.4 7.4 0 0 1-4.52-4.74 11.5 11.5 0 0 1-.58-3.77c0-2.99.79-5.26 2.36-6.82 1.57-1.56 3.75-2.34 6.54-2.34 1.2 0 2.32.16 3.37.49 1.04.32 1.9.86 2.6 1.6a6.2 6.2 0 0 1 1.44 2.94c.27 1.21.25 2.7-.05 4.44h-10.8c.02 1.84.5 3.31 1.42 4.4.93 1.1 2.3 1.65 4.1 1.65.77 0 1.58-.12 2.41-.35a5.52 5.52 0 0 0 1.95-.91zm-22.06-10.52a4.24 4.24 0 0 0-2 2.3v8.95c.46.05.93.14 1.4.27.47.12.94.32 1.41.57v1.36h-10.2v-1.36c.42-.23.82-.4 1.2-.52.37-.12.74-.22 1.12-.32V41.3l-2.32-.28v-1.36c.37-.17.83-.32 1.39-.46a24.44 24.44 0 0 1 3.4-.63l1.4-.17h1.2v4.65h.14a8.46 8.46 0 0 1 2.11-3.15c.49-.46 1.03-.84 1.62-1.12.58-.28 1.2-.4 1.82-.38.26.33.49.79.67 1.38.2.6.34 1.16.46 1.7v1.36zm-21.96-9.02a5.94 5.94 0 0 0-1.9.21v10.63c.21.07.53.1.95.12l1.02.02c.64 0 1.25-.11 1.83-.32.59-.2 1.11-.54 1.57-.98.46-.44.83-1.01 1.1-1.71.29-.7.43-1.54.43-2.52 0-1.86-.46-3.24-1.37-4.12a4.99 4.99 0 0 0-3.63-1.33zm-1.9 20.13c.64.1 1.26.23 1.89.4.62.18 1.17.38 1.67.62v1.32H140v-1.32c.45-.26.92-.47 1.43-.63.5-.17.99-.3 1.46-.39V34.16a9.42 9.42 0 0 1-2.89-1.01v-1.33h4.43c.94 0 2.02-.05 3.22-.14 1.21-.1 2.32-.14 3.33-.14 1.24 0 2.46.12 3.64.36a9.5 9.5 0 0 1 3.17 1.25 6.65 6.65 0 0 1 2.23 2.32c.56.97.85 2.17.85 3.62 0 1.37-.28 2.56-.83 3.56a7.37 7.37 0 0 1-2.2 2.48 9.6 9.6 0 0 1-3.17 1.46c-1.2.31-2.42.47-3.7.47h-.55a20.9 20.9 0 0 1-1.68-.06 4.31 4.31 0 0 1-.58-.05z"/></defs><use fill="#feffff" xlink:href="#a" transform="translate(-140 -30)"/></svg>